# xmcd
#
# Track frame offsets: 
#        150
#        16144
#        37030
#        58093
#        70694
#        87116
#        116340
#        141161
#        162316
#        171851
#        194529
#        216609
#        236885
#
# Disc length: 3410 seconds
#
# Revision: 0
# Processed by: cddbd v1.5.2PL0 Copyright (c) Steve Scherf et al.
# Submitted via: ExactAudioCopyFreeDBPlugin 1.0
#
DISCID=bc0d500d
DTITLE=Catfish Keith - Catfish Crawl
DYEAR=2019
DGENRE=Blues
TTITLE0=Catfish Crawl
TTITLE1=Go Back To Your Used To Be
TTITLE2=Bella Mina
TTITLE3=Dixie Darlin'
TTITLE4=Don't You Call Me Crazy
TTITLE5=Ramblin' Blues
TTITLE6=Little Pal of Mine
TTITLE7=Willie Mae
TTITLE8=By the Waters of the Minnetonka
TTITLE9=Memphis Morning Train
TTITLE10=Turn Your Money Green
TTITLE11=Banana in Your Fruit Basket
TTITLE12=What's the Matter Now
EXTD=
EXTT0=
EXTT1=
EXTT2=
EXTT3=
EXTT4=
EXTT5=
EXTT6=
EXTT7=
EXTT8=
EXTT9=
EXTT10=
EXTT11=
EXTT12=
PLAYORDER=
